<svg width="56" height="56" viewBox="0 0 56 56" fill="none" xmlns="http://www.w3.org/2000/svg">
    <g clip-path="url(#clip0_2_38)">
    <path d="M25.2218 18.0015C24.9733 17.5749 24.426 17.431 23.9998 17.6792L17.8067 21.2871C17.3803 21.5356 17.236 22.0827 17.4844 22.5091C17.6505 22.7941 17.9498 22.9531 18.2573 22.9531C18.4101 22.9531 18.5649 22.9139 18.7064 22.8314L24.8995 19.2235C25.326 18.9751 25.4702 18.4279 25.2218 18.0015Z" fill="#34B487"/>
    <path d="M31.1004 19.2235L37.2935 22.8313C37.4351 22.9137 37.5897 22.953 37.7426 22.953C38.0501 22.953 38.3496 22.794 38.5155 22.509C38.764 22.0826 38.6197 21.5355 38.1932 21.287L32.0001 17.6792C31.5737 17.4309 31.0267 17.575 30.7781 18.0015C30.5297 18.4279 30.674 18.9751 31.1004 19.2235Z" fill="#34B487"/>
    <path d="M17.8189 42.4646L24 46.0656C24.1416 46.148 24.2962 46.1872 24.4491 46.1872C24.7566 46.1872 25.056 46.0283 25.222 45.7433C25.4704 45.3169 25.3261 44.7697 24.8997 44.5213L18.7186 40.9203C18.2922 40.6715 17.7452 40.8161 17.4966 41.2426C17.2482 41.6691 17.3925 42.2161 17.8189 42.4646Z" fill="#34B487"/>
    <path d="M55.4808 31.8633C55.4801 31.7921 55.4708 31.7208 55.4528 31.6503C55.4505 31.6418 55.448 31.6334 55.4455 31.625C55.438 31.599 55.4292 31.5732 55.4192 31.5476C55.4157 31.5386 55.4124 31.5296 55.4086 31.5207C55.3964 31.4923 55.3827 31.4645 55.3673 31.4369C55.3652 31.4331 55.3635 31.429 55.3613 31.4251C55.3422 31.3921 55.3228 31.3638 55.3024 31.3364C55.2976 31.3299 55.2924 31.324 55.2874 31.3178C55.2698 31.2955 55.2513 31.2742 55.2319 31.2539C55.2256 31.2474 55.2192 31.2409 55.2127 31.2345C55.1906 31.2129 55.1679 31.1926 55.1439 31.1736C55.1399 31.1704 55.1362 31.1669 55.1321 31.1638C55.1032 31.1417 55.0732 31.1214 55.0421 31.1031C55.0374 31.1 42.1873 23.6137 42.1873 23.6137V8.63827C42.1873 8.63517 42.1867 8.63231 42.1867 8.62921C42.186 8.55808 42.1767 8.48671 42.1587 8.4163C42.1565 8.40772 42.154 8.39938 42.1515 8.39092C42.144 8.36494 42.1351 8.33921 42.1251 8.31359C42.1217 8.30453 42.1183 8.2956 42.1145 8.28666C42.1024 8.2583 42.0887 8.23042 42.0733 8.2029C42.0712 8.19909 42.0695 8.19492 42.0672 8.1911C42.0482 8.15798 42.0287 8.12962 42.0082 8.10222C42.0036 8.09602 41.9985 8.09018 41.9937 8.08411C41.9758 8.06147 41.9571 8.0399 41.9376 8.01953C41.9315 8.01321 41.9254 8.00702 41.9191 8.00094C41.8967 7.9789 41.8734 7.95805 41.8489 7.93875C41.8455 7.93601 41.8423 7.93291 41.8387 7.93029C41.8095 7.90777 41.7791 7.88739 41.7477 7.86881C41.7437 7.86618 28.4498 0.121504 28.4498 0.121504C28.1717 -0.0404198 27.8282 -0.0404198 27.5501 0.121504L14.2563 7.86618C14.2209 7.88739 14.1903 7.90801 14.1609 7.93052C14.1577 7.93303 14.1547 7.93577 14.1515 7.93839C14.1268 7.95793 14.1032 7.9789 14.0806 8.00118C14.0744 8.00726 14.0684 8.01333 14.0623 8.01965C14.0427 8.04014 14.024 8.06183 14.0061 8.08446C14.0013 8.09054 13.9962 8.09626 13.9916 8.10246C13.9711 8.12986 13.9516 8.15822 13.934 8.18848C13.9303 8.19515 13.9287 8.19921 13.9265 8.20314C13.9111 8.23066 13.8974 8.25854 13.8853 8.2869C13.8815 8.29572 13.8781 8.30477 13.8747 8.31383C13.8647 8.33932 13.8559 8.36506 13.8483 8.39115C13.8458 8.39961 13.8433 8.40795 13.8412 8.41653C13.8231 8.48695 13.8138 8.55832 13.8132 8.62945C13.8132 8.63243 13.8126 8.63541 13.8126 8.63851V23.6142L0.962509 31.1002C0.926765 31.1217 0.89662 31.1419 0.867667 31.1642C0.863735 31.1673 0.860041 31.1706 0.856109 31.1737C0.832161 31.1928 0.809284 31.2132 0.787241 31.2347C0.780807 31.2411 0.774373 31.2475 0.768178 31.254C0.748756 31.2743 0.730288 31.2956 0.712654 31.3179C0.70765 31.3242 0.702407 31.3302 0.697641 31.3366C0.677267 31.3639 0.657846 31.3923 0.640212 31.4224C0.636518 31.4291 0.63485 31.4331 0.632705 31.4371C0.617335 31.4646 0.603633 31.4925 0.59148 31.5208C0.587667 31.5296 0.584331 31.5387 0.580875 31.5477C0.570867 31.5732 0.56205 31.599 0.554543 31.6251C0.552041 31.6335 0.549539 31.6419 0.547395 31.6505C0.529284 31.7209 0.51999 31.7922 0.519395 31.8634C0.519395 31.8664 0.518799 31.8693 0.518799 31.8724V47.3618C0.518799 47.6798 0.687871 47.9739 0.962629 48.1339L14.2564 55.8786C14.2589 55.88 14.2617 55.8809 14.2642 55.8824C14.2961 55.9006 14.3291 55.9173 14.3634 55.9316C14.3968 55.9454 14.4304 55.9564 14.4647 55.966C14.4732 55.9684 14.4817 55.9704 14.4903 55.9726C14.5171 55.9792 14.5444 55.9846 14.5722 55.9888C14.5814 55.9902 14.5903 55.9919 14.5995 55.9929C14.6346 55.9971 14.6701 56 14.7063 56C14.7426 56 14.7782 55.9972 14.8132 55.9929C14.8224 55.9919 14.8313 55.9902 14.8405 55.9888C14.8683 55.9846 14.8955 55.9792 14.9224 55.9726C14.9309 55.9704 14.9395 55.9684 14.948 55.966C14.9823 55.9564 15.0159 55.9454 15.0484 55.9319C15.0834 55.9174 15.1164 55.9007 15.1484 55.8824C15.1509 55.8809 15.1536 55.88 15.1561 55.8786L28 48.3959L40.844 55.8786C40.8465 55.88 40.8493 55.8809 40.8518 55.8824C40.8837 55.9006 40.9166 55.9173 40.9509 55.9316C40.9844 55.9454 41.0179 55.9564 41.0521 55.966C41.0607 55.9684 41.0692 55.9705 41.0778 55.9727C41.1046 55.9794 41.1318 55.9847 41.1595 55.9889C41.1687 55.9903 41.1778 55.992 41.1869 55.9931C41.2221 55.9972 41.2576 56.0001 41.2938 56.0001C41.33 56.0001 41.3656 55.9973 41.4007 55.9931C41.4099 55.992 41.4189 55.9903 41.4281 55.9889C41.4558 55.9847 41.483 55.9794 41.5098 55.9727C41.5184 55.9705 41.527 55.9685 41.5356 55.966C41.5698 55.9564 41.6034 55.9454 41.6358 55.9319C41.6711 55.9173 41.7039 55.9006 41.7359 55.8824C41.7384 55.8809 41.7411 55.88 41.7436 55.8786L55.0374 48.1339C55.3122 47.9737 55.4812 47.6797 55.4812 47.3618V31.8724C55.4812 31.8692 55.4808 31.8664 55.4808 31.8633ZM52.8124 31.8723L41.2938 38.5828L29.7752 31.8723L41.2938 25.1618L52.8124 31.8723ZM15.5998 10.193L27.1064 16.8965V30.3174L15.5998 23.614V10.193V10.193ZM40.4002 23.614L28.8936 30.3175V16.8966L40.4002 10.1932V23.614ZM27.1064 46.848L15.5998 53.5516V40.1306L27.1064 33.4272V46.848ZM28.8936 33.4271L40.4002 40.1305V53.5515L28.8936 46.848V33.4271ZM28 1.9278L39.5186 8.63827L28 15.3487L16.4814 8.63827L28 1.9278ZM14.7062 25.1618L26.2248 31.8723L14.7062 38.5828L3.18762 31.8723L14.7062 25.1618ZM2.30603 33.4271L13.8126 40.1305V53.5515L2.30603 46.8479V33.4271ZM42.1874 53.5516V40.1306L53.694 33.4272V46.8481L42.1874 53.5516Z" fill="#34B487"/>
    <path d="M38.5037 41.2424C38.2552 40.8159 37.7081 40.672 37.2817 40.9202L31.1007 44.5212C30.6742 44.7696 30.5299 45.3167 30.7784 45.7432C30.9444 46.0282 31.2438 46.1871 31.5513 46.1871C31.704 46.1871 31.8588 46.1479 32.0003 46.0655L38.1814 42.4644C38.6079 42.216 38.7522 41.6689 38.5037 41.2424Z" fill="#34B487"/>
    <path d="M11.9279 41.2355C11.6794 40.809 11.1321 40.665 10.7059 40.9132L4.52485 44.5143C4.09841 44.7627 3.95413 45.3098 4.20255 45.7363C4.36864 46.0213 4.66795 46.1802 4.97547 46.1802C5.12822 46.1802 5.28299 46.141 5.42454 46.0586L11.6056 42.4575C12.0321 42.2091 12.1764 41.662 11.9279 41.2355Z" fill="#34B487"/>
    <path d="M51.4752 44.5144L45.3181 40.9274C44.8917 40.6788 44.3445 40.8232 44.0961 41.2497C43.8477 41.6761 43.992 42.2233 44.4184 42.4717L50.5755 46.0587C50.7171 46.1411 50.8717 46.1803 51.0246 46.1803C51.3321 46.1803 51.6316 46.0214 51.7975 45.7364C52.046 45.3098 51.9018 44.7628 51.4752 44.5144Z" fill="#34B487"/>
    </g>
    <defs>
    <clipPath id="clip0_2_38">
    <rect width="56" height="56" fill="white"/>
    </clipPath>
    </defs>
</svg>
